<?xml version="1.0" encoding="UTF-8" standalone="no"?>
<svg
   viewBox="0 0 1024 1024"
   version="1.1"
   id="svg20"
   sodipodi:docname="magnoom.svg"
   inkscape:version="1.4.3 (0d15f750, 2025-12-25)"
   xmlns:inkscape="http://www.inkscape.org/namespaces/inkscape"
   xmlns:sodipodi="http://sodipodi.sourceforge.net/DTD/sodipodi-0.dtd"
   xmlns="http://www.w3.org/2000/svg"
   xmlns:svg="http://www.w3.org/2000/svg">
  <sodipodi:namedview
     id="namedview20"
     pagecolor="#ffffff"
     bordercolor="#000000"
     borderopacity="0.25"
     inkscape:showpageshadow="2"
     inkscape:pageopacity="0.0"
     inkscape:pagecheckerboard="0"
     inkscape:deskcolor="#d1d1d1"
     inkscape:zoom="0.095296544"
     inkscape:cx="-676.83462"
     inkscape:cy="650.60072"
     inkscape:window-width="1470"
     inkscape:window-height="819"
     inkscape:window-x="0"
     inkscape:window-y="33"
     inkscape:window-maximized="1"
     inkscape:current-layer="svg20" />
  <defs
     id="defs10">
    <radialGradient
       id="background"
       cx="50%"
       cy="42%"
       r="70%">
      <stop
         offset="0"
         stop-color="#30234d"
         id="stop1"
         style="stop-color:#7746a6;stop-opacity:1;" />
      <stop
         offset="0.65"
         stop-color="#171323"
         id="stop2" />
      <stop
         offset="1"
         stop-color="#0b0910"
         id="stop3" />
    </radialGradient>
    <radialGradient
       id="core"
       cx="481.28"
       cy="465.92"
       r="174.08"
       fx="481.28"
       fy="465.92"
       gradientUnits="userSpaceOnUse"
       gradientTransform="translate(7.6206945e-6,-4.3487569e-5)">
      <stop
         offset="0"
         stop-color="#fff2ac"
         id="stop4" />
      <stop
         offset="0.42"
         stop-color="#f4c34f"
         id="stop5" />
      <stop
         offset="1"
         stop-color="#b96b18"
         id="stop6" />
    </radialGradient>
    <linearGradient
       id="vortex"
       x1="0"
       y1="0"
       x2="1"
       y2="1">
      <stop
         offset="0"
         stop-color="#f8d56b"
         id="stop7" />
      <stop
         offset="0.48"
         stop-color="#c792ea"
         id="stop8" />
      <stop
         offset="1"
         stop-color="#6e3bb5"
         id="stop9" />
    </linearGradient>
    <filter
       id="glow"
       x="-0.12715232"
       y="-0.12715232"
       width="1.2543046"
       height="1.2543046">
      <feGaussianBlur
         stdDeviation="16"
         result="blur"
         id="feGaussianBlur9" />
      <feMerge
         id="feMerge10">
        <feMergeNode
           in="blur"
           id="feMergeNode9" />
        <feMergeNode
           in="SourceGraphic"
           id="feMergeNode10" />
      </feMerge>
    </filter>
    <filter
       inkscape:collect="always"
       style="color-interpolation-filters:sRGB"
       id="filter25"
       x="-0.014302793"
       y="-0.016088203"
       width="1.0286056"
       height="1.0321764">
      <feGaussianBlur
         inkscape:collect="always"
         stdDeviation="4.9815801"
         id="feGaussianBlur25" />
    </filter>
    <filter
       inkscape:collect="always"
       style="color-interpolation-filters:sRGB"
       id="filter30"
       x="-0.013098036"
       y="-0.036177786"
       width="1.0261961"
       height="1.0723556">
      <feGaussianBlur
         inkscape:collect="always"
         stdDeviation="5.2159573"
         id="feGaussianBlur30" />
    </filter>
    <filter
       inkscape:collect="always"
       style="color-interpolation-filters:sRGB"
       id="filter32"
       x="-0.096992871"
       y="-0.054643871"
       width="1.1939857"
       height="1.1092877">
      <feGaussianBlur
         inkscape:collect="always"
         stdDeviation="5.7344645"
         id="feGaussianBlur32" />
    </filter>
  </defs>
  <rect
     width="1024"
     height="1024"
     rx="220"
     fill="url(#background)"
     id="rect10" />
  <text
     xml:space="preserve"
     style="font-style:normal;font-variant:normal;font-weight:normal;font-stretch:normal;font-size:1079.19px;font-family:'Arial Black';-inkscape-font-specification:'Arial Black, Normal';font-variant-ligatures:normal;font-variant-caps:normal;font-variant-numeric:normal;font-variant-east-asian:normal;text-align:center;writing-mode:lr-tb;direction:ltr;text-anchor:middle;fill:#f9f9f9;fill-opacity:1;stroke:#f7d46a;stroke-width:0.944884;stroke-linecap:square;stroke-dashoffset:4.93228;stroke-opacity:1;filter:url(#filter25)"
     x="523.30902"
     y="904.06183"
     id="text30"
     transform="matrix(1.0030022,0,0,0.9970068,16,14)"><tspan
       id="tspan30"
       style="font-style:normal;font-variant:normal;font-weight:normal;font-stretch:normal;font-size:1079.19px;font-family:'Arial Black';-inkscape-font-specification:'Arial Black, Normal';font-variant-ligatures:normal;font-variant-caps:normal;font-variant-numeric:normal;font-variant-east-asian:normal;fill:#f9f9f9;fill-opacity:1;stroke:#f7d46a;stroke-width:0.944884;stroke-opacity:1"
       x="523.30902"
       y="904.06183"
       sodipodi:role="line">M</tspan></text>
  <text
     xml:space="preserve"
     style="font-style:normal;font-variant:normal;font-weight:normal;font-stretch:normal;font-size:1079.19px;font-family:'Arial Black';-inkscape-font-specification:'Arial Black, Normal';font-variant-ligatures:normal;font-variant-caps:normal;font-variant-numeric:normal;font-variant-east-asian:normal;text-align:center;writing-mode:lr-tb;direction:ltr;text-anchor:middle;fill:#f7d46a;fill-opacity:1;stroke:#f7d46a;stroke-width:0.944884;stroke-linecap:square;stroke-dashoffset:4.93228;stroke-opacity:1;filter:url(#filter25)"
     x="523.30902"
     y="904.06183"
     id="text1"
     transform="scale(1.0030022,0.9970068)"><tspan
       id="tspan1"
       style="font-style:normal;font-variant:normal;font-weight:normal;font-stretch:normal;font-size:1079.19px;font-family:'Arial Black';-inkscape-font-specification:'Arial Black, Normal';font-variant-ligatures:normal;font-variant-caps:normal;font-variant-numeric:normal;font-variant-east-asian:normal;fill:#f7d46a;fill-opacity:1;stroke:#f7d46a;stroke-width:0.944884;stroke-opacity:1"
       x="523.30902"
       y="904.06183"
       sodipodi:role="line">M</tspan></text>
  <g
     id="g31"
     transform="matrix(0.85904518,0,0,0.7607554,87.714171,143.83239)"
     style="stroke-width:1.237">
    <g
       id="g30"
       transform="matrix(1.0447164,0,0,0.65335961,1503.1779,-542.88744)"
       style="fill:#1a1a1a;stroke-width:5.65889;filter:url(#filter30)">
      <g
         id="g29"
         transform="translate(0,-16.404167)"
         style="fill:#1a1a1a;stroke-width:5.65889">
        <g
           id="g25"
           style="opacity:1;fill:#1a1a1a;fill-opacity:1;stroke-width:5.65889"
           transform="scale(0.71766391,1.3934099)" />
        <g
           id="g28"
           transform="translate(-92.376488,290.12023)"
           style="fill:#1a1a1a;fill-opacity:1;stroke-width:5.65889">
          <g
             id="g27"
             style="fill:#1a1a1a;stroke-width:5.65889">
            <path
               style="font-size:335.191px;font-family:'Arial Black';-inkscape-font-specification:'Arial Black, Normal';text-align:center;baseline-shift:baseline;text-anchor:middle;display:inline;overflow:visible;opacity:1;vector-effect:none;fill:#1a1a1a;fill-opacity:1;stroke-width:5.65889;stroke-linecap:square;stroke-dashoffset:4.93228;enable-background:accumulate;stop-color:#000000;stop-opacity:1"
               d="m -1908.2905,1174.4297 -63.6666,-6.7103 c 2.4004,-11.1294 5.8374,-19.8583 10.311,-26.1868 4.5827,-6.4376 11.1294,-12.0023 19.6401,-16.6941 6.1103,-3.3825 14.5119,-6.0011 25.2048,-7.856 10.6929,-1.8549 22.2588,-2.7824 34.6975,-2.7824 19.9675,0 36.0069,1.1457 48.1182,3.437 12.1114,2.1823 22.2042,6.8195 30.2785,13.9118 5.6738,4.91 10.1474,11.8931 13.4208,20.9494 3.2733,8.9472 4.91,17.5124 4.91,25.6958 v 76.76 c 0,8.1834 0.491,14.621 1.473,19.3128 1.0911,4.5827 3.3825,10.4747 6.874,17.6761 h -62.521 c -2.5095,-4.4736 -4.1462,-7.856 -4.91,-10.1474 -0.7637,-2.4004 -1.5275,-6.1102 -2.2913,-11.1294 -8.7289,8.4016 -17.4033,14.4028 -26.0232,18.0035 -11.784,4.8009 -25.4775,7.2013 -41.0805,7.2013 -20.7312,0 -36.4978,-4.8009 -47.2999,-14.4027 -10.6929,-9.6018 -16.0394,-21.4405 -16.0394,-35.5159 0,-13.2025 3.8735,-24.0591 11.6204,-32.5698 7.7469,-8.5107 22.0406,-14.8392 42.8809,-18.9854 24.9865,-5.0192 41.1896,-8.5107 48.6092,-10.4747 7.4196,-2.0732 15.2756,-4.7464 23.5681,-8.0197 0,-8.1834 -1.6912,-13.9118 -5.0737,-17.1851 -3.3825,-3.2734 -9.329,-4.9101 -17.8397,-4.9101 -10.9112,0 -19.0946,1.7458 -24.5501,5.2374 -4.2554,2.7278 -7.6924,7.856 -10.3111,15.3847 z m 57.7746,35.0249 c -9.1653,3.2733 -18.7126,6.1648 -28.6418,8.6744 -13.5299,3.6007 -22.0951,7.1468 -25.6958,10.6384 -3.7098,3.6006 -5.5647,7.6923 -5.5647,12.275 0,5.2374 1.8004,9.5473 5.4011,12.9297 3.7097,3.2734 9.1107,4.9101 16.203,4.9101 7.4196,0 14.2936,-1.8004 20.6221,-5.4011 6.4376,-3.6006 10.9657,-7.9651 13.5844,-13.0934 2.7278,-5.2373 4.0917,-12.0022 4.0917,-20.2947 z m 231.4258,-91.3265 h 62.3574 v 164.1585 l 0.1636,7.6924 c 0,10.9112 -2.3459,21.2768 -7.0377,31.0968 -4.5827,9.9292 -10.7475,17.9489 -18.4944,24.0591 -7.6378,6.1103 -17.4033,10.5293 -29.2965,13.2571 -11.7841,2.7278 -25.3139,4.0917 -40.5895,4.0917 -34.9157,0 -58.9203,-5.2374 -72.0137,-15.7121 -12.9843,-10.4747 -19.4764,-24.4956 -19.4764,-42.0625 0,-2.1823 0.1091,-5.1283 0.3273,-8.8381 l 64.6487,7.3651 c 1.6367,6.0011 4.1462,10.1473 7.5287,12.4387 4.91,3.3824 11.0748,5.0737 18.4944,5.0737 9.6018,0 16.7486,-2.5641 21.4404,-7.6924 4.8009,-5.1282 7.2014,-14.0754 7.2014,-26.8415 v -26.3504 c -6.5467,7.7469 -13.0934,13.3662 -19.6401,16.8577 -10.2565,5.4556 -21.3313,8.1834 -33.2245,8.1834 -23.2408,0 -42.008,-10.1474 -56.3016,-30.4422 -10.1474,-14.4027 -15.2211,-33.4427 -15.2211,-57.1199 0,-27.0597 6.5467,-47.6818 19.6401,-61.8663 13.0934,-14.1845 30.2239,-21.2768 51.3916,-21.2768 13.5299,0 24.6593,2.2914 33.3882,6.874 8.838,4.5827 17.0759,12.166 24.7137,22.7498 z m -62.6846,84.2888 c 0,12.5478 2.6732,21.8769 8.0197,27.9871 5.3465,6.0012 12.3842,9.0017 21.1131,9.0017 8.2925,0 15.2211,-3.1096 20.7858,-9.329 5.6738,-6.3285 8.5107,-15.8212 8.5107,-28.4782 0,-12.6569 -2.946,-22.3133 -8.838,-28.9691 -5.8921,-6.7649 -13.0935,-10.1474 -21.6042,-10.1474 -8.5107,0 -15.3301,3.1097 -20.4584,9.3291 -5.0191,6.1102 -7.5287,16.3122 -7.5287,30.6058 z m 165.3042,-84.2888 h 62.0299 v 28.3145 c 9.2745,-11.5658 18.6581,-19.8038 28.1508,-24.7138 9.4927,-5.0191 21.0586,-7.5287 34.6975,-7.5287 18.4399,0 32.8427,5.5102 43.2083,16.5304 10.4747,10.9112 15.712,27.8235 15.712,50.7369 v 110.4756 h -66.94 v -95.5818 c 0,-10.9112 -2.0186,-18.6035 -6.0557,-23.0771 -4.0371,-4.5827 -9.7109,-6.8741 -17.0214,-6.8741 -8.0743,0 -14.621,3.0552 -19.6401,9.1654 -5.0191,6.1103 -7.5287,17.076 -7.5287,32.8972 v 83.4704 h -66.6126 z m 576.08261,0 h 62.19364 v 25.3685 c 8.94716,-10.5838 17.94887,-18.1125 27.00514,-22.5861 9.16538,-4.4736 20.18566,-6.7104 33.06083,-6.7104 13.85718,0 24.8229,2.455 32.89716,7.365 8.07427,4.9101 14.67552,12.2206 19.80377,21.9315 10.47472,-11.3476 20.02199,-19.04 28.64181,-23.0771 8.61982,-4.1463 19.25821,-6.2194 31.91516,-6.2194 18.65809,0 33.2245,5.5647 43.69922,16.6941 10.47472,11.0203 15.71208,28.3145 15.71208,51.8826 v 109.1662 h -66.77634 v -99.0188 c 0,-7.8561 -1.52756,-13.6935 -4.58269,-17.5124 -4.47357,-6.0012 -10.03827,-9.0018 -16.69408,-9.0018 -7.85604,0 -14.18452,2.8369 -18.98543,8.5107 -4.80091,5.6739 -7.20137,14.7847 -7.20137,27.3325 v 89.6898 h -66.77633 v -95.7455 c 0,-7.6378 -0.43645,-12.8206 -1.30934,-15.5484 -1.41845,-4.3644 -3.87347,-7.856 -7.36504,-10.4747 -3.49157,-2.7278 -7.58326,-4.0917 -12.27506,-4.0917 -7.63781,0 -13.91173,2.8915 -18.82176,8.6744 -4.91003,5.7829 -7.36504,15.2756 -7.36504,28.4781 v 88.7078 h -66.77633 z"
               id="path25"
               sodipodi:nodetypes="ccccsscccssccccccscsscccsscccccscsccsccccccccscscccscsccscssscccscscscscsccccscsccscssscccccccssccscsccscsssccsccsssccc"
               transform="matrix(0.71766392,0,0,1.3934099,92.376488,-290.12023)" />
            <path
               style="font-size:335.191px;font-family:'Arial Black';-inkscape-font-specification:'Arial Black, Normal';text-align:center;baseline-shift:baseline;text-anchor:middle;display:inline;overflow:visible;vector-effect:none;fill:#1a1a1a;fill-opacity:1;stroke-width:5.65889;stroke-linecap:square;stroke-dashoffset:4.93228;enable-background:accumulate;stop-color:#000000"
               d="m -746.08421,1389.2265 c 0,-10.4906 -0.55791,-20.387 -1.67381,-28.1789 -1.11582,-7.7919 -2.78963,-14.2345 -5.02135,-19.3277 -4.46336,-10.3385 -9.98392,-15.5078 -16.5616,-15.5078 -6.96916,0 -12.72461,5.2453 -17.26635,15.7359 -4.54173,10.3385 -6.81256,26.1504 -6.81256,47.4356 0,21.5893 2.23172,37.5532 6.69508,47.8917 4.54174,10.3385 10.21889,15.5078 17.03146,15.5078 6.89086,0 12.52883,-5.0932 16.91397,-15.2797 2.23172,-5.0933 3.90553,-11.7259 5.02135,-19.8979 1.7663,20.8242 6.09451,47.2445 23.78298,73.9918 -3.78314,4.4471 -11.51836,12.0423 -15.91326,15.007 -4.3949,2.9647 -9.09568,5.1883 -14.10233,6.6706 -5.00666,1.4824 -10.31919,2.2236 -15.9376,2.2236 -20.04622,0 -36.25543,-9.8824 -48.62774,-29.6473 -15.19129,-24.478 -22.7869,-56.5578 -22.7869,-96.2396 0,-36.945 6.42108,-67.3525 19.26317,-91.2223 12.84209,-24.0219 30.18679,-36.0329 52.03399,-36.0329 24.97944,0 43.85106,14.0635 56.61485,42.1904 5.129,11.3268 8.97582,23.9649 11.54032,37.9143 2.5645,13.9494 3.80664,30.1933 3.80664,46.7654"
               id="path26"
               sodipodi:nodetypes="cscscscscccssscscscsc" />
            <path
               style="font-size:335.191px;font-family:'Arial Black';-inkscape-font-specification:'Arial Black, Normal';text-align:center;baseline-shift:baseline;text-anchor:middle;display:inline;overflow:visible;vector-effect:none;fill:#1a1a1a;fill-opacity:1;stroke-width:5.65889;stroke-linecap:square;stroke-dashoffset:4.93228;enable-background:accumulate;stop-color:#000000"
               d="m -698.0925,1388.6285 c 0,10.4906 0.5579,20.3869 1.6738,28.1788 1.1158,7.7919 2.7896,14.2345 5.0213,19.3277 4.4634,10.3385 9.984,15.5078 16.5616,15.5078 6.9692,0 12.7246,-5.2453 17.2664,-15.7359 4.5417,-10.3385 6.8125,-26.1504 6.8125,-47.4356 0,-21.5893 -2.2317,-37.5532 -6.695,-47.8917 -4.5418,-10.3385 -10.2189,-15.5078 -17.0315,-15.5078 -6.8909,0 -12.5288,5.0932 -16.914,15.2797 -2.2317,5.0933 -3.9055,11.7259 -5.0213,19.8979 -1.7663,-20.8242 -6.0945,-47.2445 -23.783,-73.9918 3.7831,-4.4471 11.5184,-12.0423 15.9133,-15.007 4.3949,-2.9647 9.0956,-5.1883 14.1023,-6.6706 5.0067,-1.4824 10.3192,-2.2236 15.9376,-2.2236 20.0462,0 36.2554,9.8824 48.6277,29.6473 15.1913,24.478 22.7869,56.5578 22.7869,96.2396 0,36.945 -6.421,67.3525 -19.2631,91.2223 -12.8421,24.0219 -30.1868,36.0329 -52.034,36.0329 -24.9795,0 -43.8511,-14.0635 -56.6149,-42.1904 -5.129,-11.3268 -8.9758,-23.9649 -11.5403,-37.9143 -2.5645,-13.9494 -3.8066,-30.1932 -3.8066,-46.7653"
               id="path27"
               sodipodi:nodetypes="cscscscscccssscscscsc" />
          </g>
        </g>
      </g>
    </g>
    <g
       id="g6"
       transform="matrix(1.0447164,0,0,0.65335961,1497.1779,-552.88744)"
       style="stroke-width:5.65889">
      <g
         id="g20"
         transform="translate(0,-16.404167)"
         style="stroke-width:5.65889">
        <g
           id="text2"
           style="opacity:1;fill:#800080;fill-opacity:1;stroke-width:5.65889"
           transform="scale(0.71766391,1.3934099)" />
        <g
           id="g5"
           transform="translate(-92.376488,290.12023)"
           style="fill:#800080;fill-opacity:1;stroke-width:5.65889">
          <g
             id="g21"
             style="stroke-width:5.65889">
            <path
               style="font-size:335.191px;font-family:'Arial Black';-inkscape-font-specification:'Arial Black, Normal';text-align:center;baseline-shift:baseline;text-anchor:middle;display:inline;overflow:visible;opacity:1;vector-effect:none;fill:#800080;fill-opacity:1;stroke-width:5.65889;stroke-linecap:square;stroke-dashoffset:4.93228;enable-background:accumulate;stop-color:#000000;stop-opacity:1"
               d="m -1908.2905,1174.4297 -63.6666,-6.7103 c 2.4004,-11.1294 5.8374,-19.8583 10.311,-26.1868 4.5827,-6.4376 11.1294,-12.0023 19.6401,-16.6941 6.1103,-3.3825 14.5119,-6.0011 25.2048,-7.856 10.6929,-1.8549 22.2588,-2.7824 34.6975,-2.7824 19.9675,0 36.0069,1.1457 48.1182,3.437 12.1114,2.1823 22.2042,6.8195 30.2785,13.9118 5.6738,4.91 10.1474,11.8931 13.4208,20.9494 3.2733,8.9472 4.91,17.5124 4.91,25.6958 v 76.76 c 0,8.1834 0.491,14.621 1.473,19.3128 1.0911,4.5827 3.3825,10.4747 6.874,17.6761 h -62.521 c -2.5095,-4.4736 -4.1462,-7.856 -4.91,-10.1474 -0.7637,-2.4004 -1.5275,-6.1102 -2.2913,-11.1294 -8.7289,8.4016 -17.4033,14.4028 -26.0232,18.0035 -11.784,4.8009 -25.4775,7.2013 -41.0805,7.2013 -20.7312,0 -36.4978,-4.8009 -47.2999,-14.4027 -10.6929,-9.6018 -16.0394,-21.4405 -16.0394,-35.5159 0,-13.2025 3.8735,-24.0591 11.6204,-32.5698 7.7469,-8.5107 22.0406,-14.8392 42.8809,-18.9854 24.9865,-5.0192 41.1896,-8.5107 48.6092,-10.4747 7.4196,-2.0732 15.2756,-4.7464 23.5681,-8.0197 0,-8.1834 -1.6912,-13.9118 -5.0737,-17.1851 -3.3825,-3.2734 -9.329,-4.9101 -17.8397,-4.9101 -10.9112,0 -19.0946,1.7458 -24.5501,5.2374 -4.2554,2.7278 -7.6924,7.856 -10.3111,15.3847 z m 57.7746,35.0249 c -9.1653,3.2733 -18.7126,6.1648 -28.6418,8.6744 -13.5299,3.6007 -22.0951,7.1468 -25.6958,10.6384 -3.7098,3.6006 -5.5647,7.6923 -5.5647,12.275 0,5.2374 1.8004,9.5473 5.4011,12.9297 3.7097,3.2734 9.1107,4.9101 16.203,4.9101 7.4196,0 14.2936,-1.8004 20.6221,-5.4011 6.4376,-3.6006 10.9657,-7.9651 13.5844,-13.0934 2.7278,-5.2373 4.0917,-12.0022 4.0917,-20.2947 z m 231.4258,-91.3265 h 62.3574 v 164.1585 l 0.1636,7.6924 c 0,10.9112 -2.3459,21.2768 -7.0377,31.0968 -4.5827,9.9292 -10.7475,17.9489 -18.4944,24.0591 -7.6378,6.1103 -17.4033,10.5293 -29.2965,13.2571 -11.7841,2.7278 -25.3139,4.0917 -40.5895,4.0917 -34.9157,0 -58.9203,-5.2374 -72.0137,-15.7121 -12.9843,-10.4747 -19.4764,-24.4956 -19.4764,-42.0625 0,-2.1823 0.1091,-5.1283 0.3273,-8.8381 l 64.6487,7.3651 c 1.6367,6.0011 4.1462,10.1473 7.5287,12.4387 4.91,3.3824 11.0748,5.0737 18.4944,5.0737 9.6018,0 16.7486,-2.5641 21.4404,-7.6924 4.8009,-5.1282 7.2014,-14.0754 7.2014,-26.8415 v -26.3504 c -6.5467,7.7469 -13.0934,13.3662 -19.6401,16.8577 -10.2565,5.4556 -21.3313,8.1834 -33.2245,8.1834 -23.2408,0 -42.008,-10.1474 -56.3016,-30.4422 -10.1474,-14.4027 -15.2211,-33.4427 -15.2211,-57.1199 0,-27.0597 6.5467,-47.6818 19.6401,-61.8663 13.0934,-14.1845 30.2239,-21.2768 51.3916,-21.2768 13.5299,0 24.6593,2.2914 33.3882,6.874 8.838,4.5827 17.0759,12.166 24.7137,22.7498 z m -62.6846,84.2888 c 0,12.5478 2.6732,21.8769 8.0197,27.9871 5.3465,6.0012 12.3842,9.0017 21.1131,9.0017 8.2925,0 15.2211,-3.1096 20.7858,-9.329 5.6738,-6.3285 8.5107,-15.8212 8.5107,-28.4782 0,-12.6569 -2.946,-22.3133 -8.838,-28.9691 -5.8921,-6.7649 -13.0935,-10.1474 -21.6042,-10.1474 -8.5107,0 -15.3301,3.1097 -20.4584,9.3291 -5.0191,6.1102 -7.5287,16.3122 -7.5287,30.6058 z m 165.3042,-84.2888 h 62.0299 v 28.3145 c 9.2745,-11.5658 18.6581,-19.8038 28.1508,-24.7138 9.4927,-5.0191 21.0586,-7.5287 34.6975,-7.5287 18.4399,0 32.8427,5.5102 43.2083,16.5304 10.4747,10.9112 15.712,27.8235 15.712,50.7369 v 110.4756 h -66.94 v -95.5818 c 0,-10.9112 -2.0186,-18.6035 -6.0557,-23.0771 -4.0371,-4.5827 -9.7109,-6.8741 -17.0214,-6.8741 -8.0743,0 -14.621,3.0552 -19.6401,9.1654 -5.0191,6.1103 -7.5287,17.076 -7.5287,32.8972 v 83.4704 h -66.6126 z m 576.08261,0 h 62.19364 v 25.3685 c 8.94716,-10.5838 17.94887,-18.1125 27.00514,-22.5861 9.16538,-4.4736 20.18566,-6.7104 33.06083,-6.7104 13.85718,0 24.8229,2.455 32.89716,7.365 8.07427,4.9101 14.67552,12.2206 19.80377,21.9315 10.47472,-11.3476 20.02199,-19.04 28.64181,-23.0771 8.61982,-4.1463 19.25821,-6.2194 31.91516,-6.2194 18.65809,0 33.2245,5.5647 43.69922,16.6941 10.47472,11.0203 15.71208,28.3145 15.71208,51.8826 v 109.1662 h -66.77634 v -99.0188 c 0,-7.8561 -1.52756,-13.6935 -4.58269,-17.5124 -4.47357,-6.0012 -10.03827,-9.0018 -16.69408,-9.0018 -7.85604,0 -14.18452,2.8369 -18.98543,8.5107 -4.80091,5.6739 -7.20137,14.7847 -7.20137,27.3325 v 89.6898 h -66.77633 v -95.7455 c 0,-7.6378 -0.43645,-12.8206 -1.30934,-15.5484 -1.41845,-4.3644 -3.87347,-7.856 -7.36504,-10.4747 -3.49157,-2.7278 -7.58326,-4.0917 -12.27506,-4.0917 -7.63781,0 -13.91173,2.8915 -18.82176,8.6744 -4.91003,5.7829 -7.36504,15.2756 -7.36504,28.4781 v 88.7078 h -66.77633 z"
               id="path2"
               sodipodi:nodetypes="ccccsscccssccccccscsscccsscccccscsccsccccccccscscccscsccscssscccscscscscsccccscsccscssscccccccssccscsccscsssccsccsssccc"
               transform="matrix(0.71766392,0,0,1.3934099,92.376488,-290.12023)" />
            <path
               style="font-size:335.191px;font-family:'Arial Black';-inkscape-font-specification:'Arial Black, Normal';text-align:center;baseline-shift:baseline;text-anchor:middle;display:inline;overflow:visible;vector-effect:none;fill:#800080;fill-opacity:1;stroke-width:5.65889;stroke-linecap:square;stroke-dashoffset:4.93228;enable-background:accumulate;stop-color:#000000"
               d="m -746.08421,1389.2265 c 0,-10.4906 -0.55791,-20.387 -1.67381,-28.1789 -1.11582,-7.7919 -2.78963,-14.2345 -5.02135,-19.3277 -4.46336,-10.3385 -9.98392,-15.5078 -16.5616,-15.5078 -6.96916,0 -12.72461,5.2453 -17.26635,15.7359 -4.54173,10.3385 -6.81256,26.1504 -6.81256,47.4356 0,21.5893 2.23172,37.5532 6.69508,47.8917 4.54174,10.3385 10.21889,15.5078 17.03146,15.5078 6.89086,0 12.52883,-5.0932 16.91397,-15.2797 2.23172,-5.0933 3.90553,-11.7259 5.02135,-19.8979 1.7663,20.8242 6.09451,47.2445 23.78298,73.9918 -3.78314,4.4471 -11.51836,12.0423 -15.91326,15.007 -4.3949,2.9647 -9.09568,5.1883 -14.10233,6.6706 -5.00666,1.4824 -10.31919,2.2236 -15.9376,2.2236 -20.04622,0 -36.25543,-9.8824 -48.62774,-29.6473 -15.19129,-24.478 -22.7869,-56.5578 -22.7869,-96.2396 0,-36.945 6.42108,-67.3525 19.26317,-91.2223 12.84209,-24.0219 30.18679,-36.0329 52.03399,-36.0329 24.97944,0 43.85106,14.0635 56.61485,42.1904 5.129,11.3268 8.97582,23.9649 11.54032,37.9143 2.5645,13.9494 3.80664,30.1933 3.80664,46.7654"
               id="path4"
               sodipodi:nodetypes="cscscscscccssscscscsc" />
            <path
               style="font-size:335.191px;font-family:'Arial Black';-inkscape-font-specification:'Arial Black, Normal';text-align:center;baseline-shift:baseline;text-anchor:middle;display:inline;overflow:visible;vector-effect:none;fill:#800080;fill-opacity:1;stroke-width:5.65889;stroke-linecap:square;stroke-dashoffset:4.93228;enable-background:accumulate;stop-color:#000000"
               d="m -698.0925,1388.6285 c 0,10.4906 0.5579,20.3869 1.6738,28.1788 1.1158,7.7919 2.7896,14.2345 5.0213,19.3277 4.4634,10.3385 9.984,15.5078 16.5616,15.5078 6.9692,0 12.7246,-5.2453 17.2664,-15.7359 4.5417,-10.3385 6.8125,-26.1504 6.8125,-47.4356 0,-21.5893 -2.2317,-37.5532 -6.695,-47.8917 -4.5418,-10.3385 -10.2189,-15.5078 -17.0315,-15.5078 -6.8909,0 -12.5288,5.0932 -16.914,15.2797 -2.2317,5.0933 -3.9055,11.7259 -5.0213,19.8979 -1.7663,-20.8242 -6.0945,-47.2445 -23.783,-73.9918 3.7831,-4.4471 11.5184,-12.0423 15.9133,-15.007 4.3949,-2.9647 9.0956,-5.1883 14.1023,-6.6706 5.0067,-1.4824 10.3192,-2.2236 15.9376,-2.2236 20.0462,0 36.2554,9.8824 48.6277,29.6473 15.1913,24.478 22.7869,56.5578 22.7869,96.2396 0,36.945 -6.421,67.3525 -19.2631,91.2223 -12.8421,24.0219 -30.1868,36.0329 -52.034,36.0329 -24.9795,0 -43.8511,-14.0635 -56.6149,-42.1904 -5.129,-11.3268 -8.9758,-23.9649 -11.5403,-37.9143 -2.5645,-13.9494 -3.8066,-30.1932 -3.8066,-46.7653"
               id="path5"
               sodipodi:nodetypes="cscscscscccssscscscsc" />
          </g>
        </g>
      </g>
    </g>
  </g>
  <text
     xml:space="preserve"
     style="font-size:357.827px;font-family:'Arial Black';-inkscape-font-specification:'Arial Black, Normal';text-align:center;writing-mode:lr-tb;direction:ltr;text-anchor:middle;fill:#000000;fill-opacity:1;stroke:#f7d46a;stroke-width:0.944883;stroke-linecap:square;stroke-dashoffset:4.93228;stroke-opacity:1;filter:url(#filter32)"
     x="530.54797"
     y="892.50763"
     id="text32"
     transform="scale(0.99905061,1.0009503)"><tspan
       sodipodi:role="line"
       id="tspan32"
       x="530.54797"
       y="892.50763"
       style="fill:#000000;stroke-width:0.944883">1</tspan></text>
  <text
     xml:space="preserve"
     style="font-size:357.827px;font-family:'Arial Black';-inkscape-font-specification:'Arial Black, Normal';text-align:center;writing-mode:lr-tb;direction:ltr;text-anchor:middle;fill:#800080;fill-opacity:1;stroke:none;stroke-width:0.944883;stroke-linecap:square;stroke-dashoffset:4.93228;stroke-opacity:1"
     x="522.54041"
     y="884.5152"
     id="text31"
     transform="scale(0.99905061,1.0009503)"><tspan
       sodipodi:role="line"
       id="tspan31"
       x="522.54041"
       y="884.5152"
       style="stroke-width:0.944883;stroke:none">1</tspan></text>
</svg>
